# xmcd
#
# Track frame offsets:
#	150
#	15973
#	32628
#	40534
#	59202
#	65684
#	72562
#	79573
#	90369
#	107809
#
# Disc length: 1682 seconds
#
# Revision: 1
# Processed by: cddbd v1.5.2PL0 Copyright (c) Steve Scherf et al.
# Submitted via: audiograbber 1.83.01
#
DISCID=7b06900a
DTITLE=Kid Cegonha and Banda - cowntry
DYEAR=1900
DGENRE=cowntry
TTITLE0=You Got It
TTITLE1=Have You Ever Seen The Rain
TTITLE2=Tente Outra Vez 
TTITLE3=Achy Breack My Heart
TTITLE4=Man I feel Like a Woman
TTITLE5=Cowboy Fora Da Lei
TTITLE6=Any Man Of Mine 
TTITLE7=Pout Porry Raul Seixas
TTITLE8=A Bruxa
TTITLE9=O Amor Pede Passagem
EXTD=
EXTT0=
EXTT1=
EXTT2=
EXTT3=
EXTT4=
EXTT5=
EXTT6=
EXTT7=
EXTT8=
EXTT9=
PLAYORDER=
